<svg width="50" height="50" viewBox="0 0 50 50" fill="none" xmlns="http://www.w3.org/2000/svg">
<circle cx="19.4634" cy="19.7964" r="2.73784" fill="#C7D7FE"/>
<path fill-rule="evenodd" clip-rule="evenodd" d="M21.5051 5.83006C21.556 5.81035 21.5944 5.80208 21.6355 5.77994C21.6767 5.7578 27.7941 2.46379 27.7941 2.46379C28.4741 2.09765 29.2731 2.689 29.1217 3.4463L28.8738 4.6857C28.8099 5.00506 29.0373 5.30866 29.3608 5.34687C29.3962 5.35106 29.4317 5.35533 29.4671 5.35969C29.5989 5.37591 29.7324 5.3452 29.843 5.27152L36.0147 1.15701C36.7317 0.679037 37.6507 1.36948 37.3912 2.19116L35.9711 6.68825C35.8877 6.95223 36.0151 7.23633 36.2644 7.35655C43.6031 10.8947 48.667 18.4046 48.667 27.0973C48.667 39.1938 38.8608 49 26.7643 49C14.6677 49 4.86155 39.1938 4.86155 27.0973C4.86155 16.8137 11.6704 9.63852 21.5051 5.83006ZM34.4482 19.3203C40.7594 25.6315 42.4085 34.2146 38.1318 38.4914C33.855 42.7682 25.2718 41.119 18.9607 34.8079C12.6495 28.4967 11.0003 19.9135 15.2771 15.6368C19.5539 11.36 28.1371 13.0092 34.4482 19.3203Z" fill="white"/>
<path d="M2.44444 31.9998C2.44444 26.4998 7.44445 17.7998 7.44445 17.7998L8.66501 28.3331C8.66501 28.3331 2.44445 37.4998 2.44444 31.9998Z" fill="white"/>
<path fill-rule="evenodd" clip-rule="evenodd" d="M7.53411 17.3645C7.722 17.4032 7.86386 17.5581 7.88594 17.7486L9.1065 28.282C9.11876 28.3878 9.0926 28.4946 9.03277 28.5827L8.66501 28.3331C9.03277 28.5827 9.03285 28.5826 9.03277 28.5827L9.02771 28.5902L9.01379 28.6105L8.96054 28.6878C8.91413 28.7548 8.84636 28.8519 8.76028 28.9733C8.58819 29.2161 8.34261 29.5563 8.04792 29.9471C7.46044 30.7262 6.67013 31.7169 5.87384 32.5383C5.47605 32.9487 5.06818 33.3257 4.67631 33.6145C4.29487 33.8955 3.88274 34.1277 3.4812 34.1869C3.27173 34.2178 3.05009 34.2037 2.83881 34.1103C2.62554 34.016 2.45787 33.8563 2.33348 33.6547C2.0968 33.2711 2 32.7097 2 31.9998C2 29.1491 3.28605 25.5244 4.53714 22.6594C5.16714 21.2167 5.79678 19.9481 6.26887 19.0401C6.50501 18.5859 6.70196 18.2215 6.84016 17.9702C6.90926 17.8446 6.96369 17.7471 7.00099 17.6809L7.0438 17.6052L7.05501 17.5855L7.05876 17.5789C7.05883 17.5788 7.05911 17.5783 7.44445 17.7998L7.05876 17.5789C7.15435 17.4126 7.34622 17.3258 7.53411 17.3645ZM7.16453 19.2453C7.12988 19.3113 7.09419 19.3796 7.05753 19.4501C6.59211 20.3453 5.97175 21.5954 5.35175 23.0152C4.10284 25.8752 2.88889 29.3505 2.88889 31.9998C2.88889 32.6649 2.98648 33.0202 3.08999 33.188C3.1357 33.2621 3.17457 33.2868 3.19822 33.2973C3.22385 33.3086 3.2695 33.3196 3.35162 33.3075C3.53326 33.2807 3.8015 33.1549 4.14904 32.8988C4.48614 32.6505 4.85583 32.3114 5.23562 31.9196C5.99446 31.1369 6.7593 30.1797 7.33818 29.4119C7.62667 29.0293 7.86706 28.6963 8.03516 28.4592C8.10444 28.3615 8.16139 28.2802 8.2043 28.2184L7.16453 19.2453Z" fill="white"/>
</svg>
