<svg width="50" height="50" viewBox="0 0 50 50" fill="none" xmlns="http://www.w3.org/2000/svg">
<circle cx="19.3663" cy="19.7964" r="2.73784" fill="#6172F3"/>
<path fill-rule="evenodd" clip-rule="evenodd" d="M21.4077 5.83006C21.4586 5.81035 21.497 5.80208 21.5382 5.77994C21.5793 5.7578 27.6967 2.46379 27.6967 2.46379C28.3767 2.09765 29.1757 2.689 29.0243 3.4463L28.7764 4.6857C28.7125 5.00506 28.9399 5.30866 29.2634 5.34687C29.2989 5.35106 29.3343 5.35533 29.3697 5.35969C29.5016 5.37591 29.6351 5.3452 29.7456 5.27152L35.9173 1.15701C36.6343 0.679037 37.5533 1.36948 37.2938 2.19116L35.8737 6.68825C35.7903 6.95223 35.9177 7.23633 36.167 7.35655C43.5057 10.8947 48.5696 18.4046 48.5696 27.0973C48.5696 39.1938 38.7634 49 26.6669 49C14.5703 49 4.76416 39.1938 4.76416 27.0973C4.76416 16.8137 11.573 9.63852 21.4077 5.83006ZM34.3508 19.3203C40.662 25.6315 42.3111 34.2147 38.0344 38.4914C33.7576 42.7682 25.1744 41.119 18.8633 34.8079C12.5521 28.4967 10.9029 19.9135 15.1797 15.6368C19.4565 11.36 28.0397 13.0092 34.3508 19.3203Z" fill="#1F235B"/>
<path d="M2.44434 31.9998C2.44433 26.4998 7.44434 17.7998 7.44434 17.7998L8.6649 28.3331C8.6649 28.3331 2.44434 37.4998 2.44434 31.9998Z" fill="#1F235B"/>
<path fill-rule="evenodd" clip-rule="evenodd" d="M7.53411 17.3646C7.722 17.4033 7.86386 17.5582 7.88594 17.7487L9.1065 28.2821C9.11876 28.3879 9.0926 28.4946 9.03277 28.5828L8.6649 28.3331C9.03266 28.5827 9.03285 28.5827 9.03277 28.5828L9.02771 28.5902L9.01379 28.6106L8.96054 28.6879C8.91413 28.7549 8.84636 28.852 8.76028 28.9734C8.58819 29.2162 8.34261 29.5563 8.04792 29.9472C7.46044 30.7263 6.67013 31.717 5.87384 32.5384C5.47605 32.9488 5.06818 33.3258 4.67631 33.6145C4.29487 33.8956 3.88274 34.1278 3.4812 34.187C3.27173 34.2179 3.05009 34.2038 2.83881 34.1104C2.62554 34.0161 2.45787 33.8564 2.33348 33.6548C2.0968 33.2712 2 32.7098 2 31.9999C2 29.1492 3.28605 25.5245 4.53714 22.6595C5.16714 21.2168 5.79678 19.9482 6.26887 19.0402C6.50501 18.586 6.70196 18.2216 6.84016 17.9703C6.90926 17.8447 6.96369 17.7472 7.00099 17.681L7.0438 17.6053L7.05501 17.5856L7.05876 17.579C7.05883 17.5789 7.059 17.5783 7.44434 17.7998L7.05876 17.579C7.15435 17.4127 7.34622 17.3259 7.53411 17.3646ZM7.16453 19.2454C7.12988 19.3114 7.09419 19.3797 7.05753 19.4502C6.59211 20.3454 5.97175 21.5955 5.35175 23.0153C4.10284 25.8753 2.88889 29.3506 2.88889 31.9999C2.88889 32.665 2.98648 33.0203 3.08999 33.1881C3.1357 33.2622 3.17457 33.2869 3.19822 33.2974C3.22385 33.3087 3.2695 33.3197 3.35162 33.3076C3.53326 33.2808 3.8015 33.155 4.14904 32.8989C4.48614 32.6506 4.85583 32.3115 5.23562 31.9197C5.99446 31.137 6.7593 30.1798 7.33818 29.412C7.62667 29.0294 7.86706 28.6964 8.03516 28.4593C8.10444 28.3616 8.16139 28.2803 8.2043 28.2185L7.16453 19.2454Z" fill="#1F235B"/>
</svg>
