<svg xmlns="http://www.w3.org/2000/svg" width="1200" height="630" fill="none"><path fill="#F5F8FF" d="M0 0h1200v630H0z"/><g clip-path="url(#a)"><path fill="#1F235B" d="M1052.57 367.333a3.815 3.815 0 0 1-3.81 3.814h-10.84c-2.1 0-3.81-1.708-3.81-3.814V261.441a3.815 3.815 0 0 1 3.81-3.815h10.84c2.1 0 3.81 1.708 3.81 3.815v105.892Zm-114.845 3.814a3.813 3.813 0 0 1-3.629-2.639l-21.942-67.746c-.798-2.464 1.039-4.99 3.629-4.99h11.312a3.814 3.814 0 0 1 3.647 2.696l9.091 29.651c1.226 4.347 2.371 9.019 3.434 13.958.253 1.174 2.03 1.173 2.3.002 1.054-4.566 2.262-8.541 4.031-13.96l9.526-29.698a3.816 3.816 0 0 1 3.632-2.649h13.331a3.815 3.815 0 0 1 3.642 2.681l9.236 29.666c.66 2.202 2.432 8.692 3.712 14.028.279 1.16 2.136 1.176 2.424.018a422.17 422.17 0 0 1 3.781-14.046l9.238-29.666a3.806 3.806 0 0 1 3.64-2.681h11.52c2.62 0 4.46 2.584 3.6 5.062l-23.45 67.747a3.813 3.813 0 0 1-3.602 2.566H987.94a3.814 3.814 0 0 1-3.635-2.659l-9.531-29.993c-1.909-6.205-3.28-11.335-4.189-15.24-.273-1.174-2.216-1.216-2.527-.052-.927 3.47-2.327 8.315-4.575 15.597l-9.525 29.698a3.816 3.816 0 0 1-3.633 2.649h-12.6Zm-31.457-55.845c0 33.873-22.277 57.676-54.319 57.676-31.89 0-53.862-23.65-53.862-57.676 0-33.873 22.125-57.676 54.014-57.676 31.89 0 54.167 23.651 54.167 57.676Zm-20.599 0c0-23.802-13.122-38.908-33.568-38.908-20.446 0-33.568 15.106-33.568 38.908 0 23.803 13.122 38.909 33.568 38.909 20.446 0 33.568-15.411 33.568-38.909Zm-138.586 57.829c-21.82 0-35.399-16.021-35.399-39.366 0-23.498 13.732-40.282 36.467-40.282 9.037 0 17.174 3.26 22.29 8.913.732.809 2.275.319 2.275-.773v-40.182a3.815 3.815 0 0 1 3.815-3.815h10.833a3.815 3.815 0 0 1 3.815 3.815v105.892a3.815 3.815 0 0 1-3.815 3.814h-9.836a3.814 3.814 0 0 1-3.794-3.42l-.493-4.748c-.112-1.073-1.646-1.403-2.291-.539-5.087 6.818-13.832 10.691-23.867 10.691Zm4.119-17.089c12.97 0 21.362-9.308 21.362-22.888 0-13.579-8.392-23.039-21.362-23.039-12.969 0-20.903 9.612-20.903 23.039 0 13.428 7.934 22.888 20.903 22.888Zm-80.204 17.09c-22.429 0-38.145-16.327-38.145-39.672 0-23.65 15.411-39.976 37.535-39.976 22.582 0 36.925 15.105 36.925 38.603v1.841a3.815 3.815 0 0 1-3.804 3.815l-48.738.131c-2.258.006-4.044 1.974-3.555 4.178 2.329 10.512 9.097 15.821 20.088 15.821 8.893 0 15.131-3.002 18.009-8.505.782-1.495 2.22-2.633 3.907-2.633h9.77c2.399 0 4.217 2.199 3.449 4.472-4.66 13.784-17.608 21.925-35.441 21.925Zm-.457-64.39c-9.473 0-15.769 4.424-18.498 12.881-.721 2.237 1.1 4.361 3.45 4.361h30.633c1.505 0 2.747-1.226 2.552-2.719-1.153-8.839-8.003-14.523-18.137-14.523Zm-98.395 58.591a3.815 3.815 0 0 1-3.814 3.814h-10.986a3.815 3.815 0 0 1-3.815-3.814V261.441a3.815 3.815 0 0 1 3.815-3.815h11.138a3.815 3.815 0 0 1 3.815 3.815v40.4c0 1.086 1.515 1.571 2.239.76 5.025-5.627 12.867-9.118 22.174-9.118 18.615 0 28.38 11.749 28.38 31.279v42.571a3.815 3.815 0 0 1-3.814 3.814h-10.986a3.815 3.815 0 0 1-3.815-3.814v-38.146c0-12.664-6.256-18.767-15.716-18.767-11.749 0-18.615 8.239-18.615 19.53v37.383ZM471.32 333.308c0-23.345 15.411-39.824 37.688-39.824 18.962 0 32.364 9.698 35.921 25.403.502 2.215-1.285 4.198-3.555 4.198h-11.383c-1.75 0-3.237-1.211-3.896-2.833-2.72-6.688-8.511-10.137-16.324-10.137-11.901 0-19.836 9.003-19.836 23.193 0 14.19 7.324 23.04 19.226 23.04 8.169 0 14.223-3.527 16.923-9.962.681-1.626 2.171-2.855 3.934-2.855h11.418c2.302 0 4.097 2.036 3.52 4.265-3.939 15.205-17.751 25.336-35.795 25.336-22.888 0-37.841-15.869-37.841-39.824Zm-83.432-42.571c0-19.531 16.173-33.111 39.671-33.111 21.078 0 34.978 10.901 37.232 28.732.27 2.135-1.477 3.921-3.629 3.921h-11.961c-2.036 0-3.66-1.62-4.149-3.597-1.832-7.408-8.263-11.661-17.798-11.661-12.054 0-19.836 5.798-19.836 15.105 0 7.935 4.272 12.359 13.58 14.496l17.547 3.814c19.072 4.12 28.38 13.885 28.38 30.516 0 20.752-16.174 34.179-40.739 34.179-22.219 0-37.258-11.035-39.534-28.76-.273-2.124 1.472-3.893 3.613-3.893h11.874c2.082 0 3.717 1.699 4.242 3.715 1.876 7.204 9.03 11.391 19.805 11.391 12.969 0 21.208-5.646 21.208-14.953 0-7.477-3.814-11.901-12.969-13.885l-17.699-3.967c-18.921-4.12-28.838-14.953-28.838-32.042Z"/><circle cx="210.518" cy="296.476" r="9.946" fill="#6172F3"/><path fill="#1F235B" fill-rule="evenodd" d="M217.933 245.737c.184-.072.324-.102.473-.183l22.374-12.047c2.47-1.33 5.373.818 4.823 3.57l-.901 4.502c-.232 1.16.594 2.263 1.769 2.402l.387.047c.479.059.964-.053 1.365-.321l22.422-14.947c2.604-1.737 5.943.772 5 3.757l-5.159 16.337a2.027 2.027 0 0 0 1.066 2.428c26.66 12.854 45.057 40.137 45.057 71.716 0 43.946-35.625 79.57-79.57 79.57-43.946 0-79.571-35.624-79.571-79.57 0-37.359 24.736-63.426 60.465-77.261Zm47.021 49.008c22.927 22.928 28.919 54.11 13.381 69.647-15.537 15.537-46.718 9.546-69.646-13.382-22.928-22.928-28.919-54.11-13.382-69.647 15.537-15.537 46.719-9.545 69.647 13.382Z" clip-rule="evenodd"/><path fill="#1F235B" d="M149.041 340.808c0-19.981 18.165-51.587 18.165-51.587l4.434 38.266s-22.599 33.302-22.599 13.321Z"/><path fill="#1F235B" fill-rule="evenodd" d="M167.532 287.64c.683.14 1.198.703 1.278 1.395l4.434 38.267c.045.384-.05.772-.267 1.092l-1.337-.907 1.337.907-.019.027-.05.074-.194.281a155.043 155.043 0 0 1-3.315 4.575c-2.135 2.83-5.006 6.43-7.899 9.414-1.445 1.49-2.926 2.86-4.35 3.909-1.386 1.021-2.883 1.865-4.342 2.08-.761.112-1.566.061-2.333-.279-.775-.342-1.384-.922-1.836-1.655-.86-1.394-1.212-3.433-1.212-6.012 0-10.356 4.672-23.524 9.217-33.932a218.141 218.141 0 0 1 8.367-17.036c.251-.456.449-.81.584-1.051l.156-.275.041-.072.013-.023c0-.001.001-.003 1.401.802l-1.401-.802a1.616 1.616 0 0 1 1.727-.779Zm-1.343 6.832-.388.745a214.492 214.492 0 0 0-6.197 12.951c-4.537 10.39-8.948 23.015-8.948 32.64 0 2.416.355 3.707.731 4.317.166.269.307.359.393.397.093.041.259.081.558.037.659-.097 1.634-.555 2.896-1.485 1.225-.902 2.568-2.134 3.948-3.557 2.757-2.844 5.535-6.321 7.638-9.11a146.808 146.808 0 0 0 3.147-4.336l-3.778-32.599Z" clip-rule="evenodd"/></g><defs><clipPath id="a"><path fill="#fff" d="M42.8 228.189h1114.4v174.379H42.8z"/></clipPath></defs></svg>