<svg width="61" height="20" viewBox="0 0 61 20" fill="none" xmlns="http://www.w3.org/2000/svg">
<path d="M10 18.75C14.8325 18.75 18.75 14.8325 18.75 10C18.75 5.16751 14.8325 1.25 10 1.25C5.16751 1.25 1.25 5.16751 1.25 10C1.25 14.8325 5.16751 18.75 10 18.75Z" fill="#1485BD"/>
<path fill-rule="evenodd" clip-rule="evenodd" d="M14.9124 9.06287H14.2249C14.1624 9.06287 14.0374 8.82543 13.7249 8.48791C13.2624 7.98789 12.7499 7.35039 12.3874 7.00039C11.488 6.21978 10.7529 5.26796 10.2249 4.20039C9.92495 3.56289 9.89991 3.27539 9.28743 3.27539C9.04551 3.30662 8.82447 3.42854 8.66903 3.61649C8.51359 3.80445 8.43527 4.04441 8.44991 4.28789C8.44991 4.46289 8.53743 5.07539 8.57494 5.28789C8.84263 6.26521 9.26463 7.19355 9.82494 8.03791H10.4999H5.14992C4.99839 8.03567 4.84807 8.06511 4.70859 8.12439C4.56911 8.18367 4.44356 8.27143 4.33999 8.38207C4.23642 8.49271 4.15711 8.62375 4.10716 8.76679C4.05721 8.90991 4.03771 9.06183 4.04992 9.21287C4.06919 9.50575 4.20091 9.77983 4.41756 9.97783C4.63421 10.1758 4.91901 10.2825 5.21243 10.2754H5.41243C5.28437 10.2786 5.15822 10.3071 5.04116 10.3591C4.92411 10.4111 4.81845 10.4857 4.73023 10.5786C4.642 10.6714 4.57294 10.7808 4.52699 10.9003C4.48104 11.0199 4.4591 11.1474 4.46243 11.2754C4.46459 11.5273 4.56057 11.7693 4.73161 11.9542C4.90266 12.1391 5.13648 12.2537 5.38743 12.2754C5.23467 12.3922 5.11887 12.5507 5.05387 12.7317C4.98888 12.9127 4.97747 13.1086 5.02101 13.296C5.06455 13.4833 5.16118 13.6542 5.29933 13.7879C5.43748 13.9218 5.61129 14.0129 5.79992 14.0504C5.68015 14.2583 5.64016 14.5026 5.68743 14.7379C5.75143 14.9688 5.89075 15.1717 6.08325 15.3144C6.27575 15.457 6.51039 15.5314 6.74992 15.5254H9.61239C9.98743 15.5254 10.3612 15.4779 10.7249 15.3879L12.4999 14.8629H14.8749C16.1499 14.8129 16.4874 9.06287 14.9124 9.06287Z" fill="#E6F7FF"/>
<path d="M9.28762 8.03684H5.13763C4.97963 8.03532 4.82319 8.06788 4.67891 8.13236C4.53464 8.19676 4.40594 8.29148 4.30156 8.41012C4.19719 8.52868 4.11958 8.66836 4.07403 8.81972C4.02849 8.971 4.01607 9.13028 4.03763 9.28684C4.05996 9.57748 4.19301 9.84844 4.40933 10.0438C4.62565 10.2392 4.90872 10.3441 5.20012 10.3368H5.40013C5.27207 10.34 5.14591 10.3685 5.02886 10.4205C4.9118 10.4725 4.80615 10.5471 4.71792 10.64C4.6297 10.7328 4.56064 10.8422 4.51469 10.9617C4.46874 11.0813 4.4468 11.2088 4.45012 11.3368C4.45472 11.5892 4.5512 11.8313 4.72148 12.0177C4.89176 12.2041 5.12415 12.322 5.37513 12.3493C5.25559 12.4431 5.15869 12.5626 5.09161 12.6989C5.02453 12.8352 4.98899 12.9849 4.98763 13.1368C4.98825 13.3713 5.06925 13.5984 5.21711 13.7804C5.36496 13.9624 5.57075 14.0882 5.80012 14.1368C5.67949 14.349 5.63954 14.5976 5.68763 14.8368C5.75395 15.0654 5.89426 15.2655 6.08654 15.4057C6.27883 15.546 6.51222 15.6185 6.75013 15.6118H9.61266C9.98762 15.6118 10.3614 15.5644 10.7251 15.4744L12.5001 14.8868H14.8751C16.1251 14.8868 16.4627 9.08684 14.8751 9.08684C14.6461 9.0994 14.4167 9.0994 14.1876 9.08684C14.1251 9.08684 14.0001 8.84932 13.6876 8.5118C13.2251 8.0118 12.7127 7.37432 12.3501 7.02432C11.4628 6.23651 10.7406 5.28057 10.2251 4.21182C10.1259 3.97596 9.99098 3.75673 9.82514 3.56182C9.6169 3.38674 9.34834 3.30043 9.07714 3.32147C8.80594 3.34251 8.55378 3.46922 8.37514 3.67432C8.24562 3.81442 8.14002 3.9749 8.06266 4.14932C8.01202 4.27002 7.97435 4.39571 7.95013 4.52432C7.91659 4.87673 7.94622 5.23231 8.03762 5.57432C8.11762 5.93432 8.23138 6.28557 8.37514 6.62432C8.6101 7.06557 8.88762 7.48432 9.2001 7.87432C9.23866 7.89809 9.26922 7.93293 9.28762 7.97432" stroke="#004B7C" stroke-width="0.8" stroke-linecap="round" stroke-linejoin="round"/>
<mask id="mask0_665_9966" style="mask-type:alpha" maskUnits="userSpaceOnUse" x="14" y="1" width="19" height="18">
<path d="M32.3499 10C32.3499 5.16751 28.4323 1.25 23.5999 1.25C18.7674 1.25 14.8499 5.16751 14.8499 10C14.8499 14.8325 18.7674 18.75 23.5999 18.75C28.4323 18.75 32.3499 14.8325 32.3499 10Z" fill="white"/>
</mask>
<g mask="url(#mask0_665_9966)">
<path d="M32.3494 10C32.3494 5.16751 28.4318 1.25 23.5994 1.25C18.7669 1.25 14.8494 5.16751 14.8494 10C14.8494 14.8325 18.7669 18.75 23.5994 18.75C28.4318 18.75 32.3494 14.8325 32.3494 10Z" fill="#D8D8D8"/>
<path d="M23.5994 18.75C28.4318 18.75 32.3494 14.8325 32.3494 10C32.3494 5.16751 28.4318 1.25 23.5994 1.25C18.7669 1.25 14.8494 5.16751 14.8494 10C14.8494 14.8325 18.7669 18.75 23.5994 18.75Z" fill="#6DAE4F"/>
<path d="M23.5996 1.25C25.9202 1.25 28.1459 2.17187 29.7868 3.81282C31.4278 5.45376 32.3496 7.67935 32.3496 10C32.3496 12.3206 31.4278 14.5462 29.7868 16.1872C28.1459 17.8282 25.9202 18.75 23.5996 18.75C21.279 18.75 19.0534 17.8282 17.4124 16.1872C15.7715 14.5462 14.8496 12.3206 14.8496 10C14.8496 7.67935 15.7715 5.45376 17.4124 3.81282C19.0534 2.17187 21.279 1.25 23.5996 1.25ZM23.5996 0C20.9474 0 18.4039 1.05357 16.5286 2.92894C14.6532 4.8043 13.5996 7.34783 13.5996 10C13.5996 12.6522 14.6532 15.1957 16.5286 17.071C18.4039 18.9464 20.9474 20 23.5996 20C26.2518 20 28.7953 18.9464 30.6706 17.071C32.546 15.1957 33.5996 12.6522 33.5996 10C33.5996 7.34783 32.546 4.8043 30.6706 2.92894C28.7953 1.05357 26.2518 0 23.5996 0Z" fill="white"/>
<path d="M28.7656 11.5308C28.7428 10.5486 28.5916 9.57367 28.3156 8.63079C27.559 8.02263 26.9839 7.21842 26.6531 6.30579C26.4531 5.64329 26.3156 5.40579 25.7281 5.39329C25.6085 5.40416 25.4924 5.43886 25.3864 5.49531C25.2805 5.55178 25.1869 5.62887 25.1111 5.72206C25.0354 5.81525 24.9791 5.92264 24.9455 6.03791C24.912 6.15319 24.9018 6.27403 24.9156 6.39329C24.9231 6.69329 24.9481 6.99454 24.9906 7.29329C25.1619 8.11207 25.4031 8.91575 25.7156 9.69327L20.0906 5.41829C19.9968 5.3269 19.8849 5.25617 19.762 5.21069C19.6392 5.1652 19.5082 5.14596 19.3774 5.1542C19.2467 5.16245 19.1192 5.19799 19.003 5.25855C18.8869 5.3191 18.7847 5.40333 18.7031 5.50579C18.6411 5.60948 18.6005 5.7246 18.584 5.84428C18.5674 5.96397 18.5751 6.08577 18.6066 6.20242C18.6381 6.31906 18.6928 6.42818 18.7673 6.52326C18.8419 6.61833 18.9349 6.69741 19.0406 6.75579L21.8531 8.88079L22.5906 9.58079L18.1281 6.19329C18.0387 6.10308 17.9309 6.03312 17.8121 5.98815C17.6933 5.94318 17.5661 5.92425 17.4394 5.93263C17.3126 5.94101 17.1891 5.9765 17.0773 6.03672C16.9654 6.09694 16.8677 6.18046 16.7909 6.28166C16.7141 6.38286 16.66 6.49938 16.6321 6.62332C16.6042 6.74726 16.6033 6.87575 16.6293 7.0001C16.6553 7.12444 16.7077 7.24175 16.783 7.34409C16.8583 7.44642 16.9547 7.53141 17.0656 7.59329L19.8781 9.71831L21.5656 10.9683L17.9156 8.23079C17.8218 8.13943 17.7098 8.06863 17.587 8.02319C17.4642 7.9777 17.3332 7.95846 17.2025 7.9667C17.0717 7.97494 16.9442 8.01047 16.8281 8.07103C16.7119 8.13159 16.6097 8.21583 16.5281 8.31831C16.1406 8.81831 16.4531 9.33079 16.8531 9.64327L19.6656 11.7558L21.0781 12.8183L18.2656 10.6933C18.1789 10.599 18.0736 10.5237 17.9564 10.4722C17.8392 10.4206 17.7124 10.394 17.5844 10.394C17.4563 10.394 17.3296 10.4206 17.2123 10.4722C17.095 10.5237 16.9897 10.599 16.9031 10.6933C16.8264 10.8002 16.773 10.9221 16.7465 11.051C16.72 11.1799 16.7209 11.313 16.7493 11.4414C16.7775 11.57 16.8325 11.6911 16.9108 11.797C16.9889 11.9028 17.0886 11.991 17.2031 12.0558L22.3281 15.8058C23.0706 16.3646 24.9156 16.847 25.7281 16.1408" stroke="#165209" stroke-width="1.2" stroke-linecap="round" stroke-linejoin="round"/>
<path fill-rule="evenodd" clip-rule="evenodd" d="M29.3658 12.3796L28.8408 11.9172C28.7725 10.9972 28.5573 10.094 28.2033 9.24211C27.4715 8.38363 26.9532 7.36422 26.6908 6.26712C26.4908 5.60462 26.3533 5.36712 25.7658 5.35462C25.6462 5.36549 25.53 5.40019 25.424 5.45664C25.3181 5.51311 25.2245 5.5902 25.1488 5.68339C25.0731 5.77658 25.0168 5.88397 24.9832 5.99924C24.9496 6.11452 24.9395 6.23535 24.9533 6.35462C24.9608 6.65462 24.9858 6.95587 25.0283 7.25462C25.172 8.04339 25.4033 8.81459 25.7158 9.55459L25.4783 9.41715L20.0908 5.27962C19.997 5.18823 19.885 5.1175 19.7622 5.07202C19.6394 5.02653 19.5084 5.00729 19.3776 5.01553C19.2469 5.02378 19.1194 5.05932 19.0032 5.11988C18.8871 5.18043 18.7849 5.26466 18.7033 5.36712C18.6306 5.474 18.5814 5.59512 18.559 5.72244C18.5366 5.84977 18.5415 5.98039 18.5735 6.10567C18.6054 6.23095 18.6636 6.34802 18.7441 6.44912C18.8247 6.55023 18.9258 6.63305 19.0408 6.69212L21.7908 8.80459L22.5908 9.44211L18.1283 6.05462C18.0353 5.9625 17.924 5.89088 17.8017 5.84436C17.6794 5.79784 17.5486 5.77746 17.418 5.78452C17.2872 5.79159 17.1595 5.82595 17.0428 5.88538C16.9262 5.94482 16.8233 6.02802 16.7408 6.12962C16.6695 6.23632 16.6212 6.35669 16.5991 6.48306C16.5768 6.60943 16.5811 6.73903 16.6117 6.86365C16.6423 6.98826 16.6984 7.10515 16.7766 7.20689C16.8548 7.30863 16.9532 7.39299 17.0658 7.45462L19.8783 9.57963L21.5658 10.8296L17.9158 8.10459C17.8238 8.01067 17.7128 7.93745 17.5903 7.88979C17.4677 7.84214 17.3364 7.82116 17.2051 7.82826C17.0738 7.83535 16.9455 7.87036 16.8288 7.93095C16.7121 7.99154 16.6096 8.07635 16.5283 8.17963C16.4551 8.28571 16.4052 8.40611 16.382 8.53291C16.3587 8.65963 16.3625 8.78995 16.3932 8.91507C16.4239 9.04027 16.4808 9.15755 16.5601 9.25915C16.6394 9.36075 16.7393 9.44443 16.8533 9.50459L19.6658 11.6172L21.0783 12.6796L18.2658 10.5672C18.1813 10.4692 18.0767 10.3908 17.9591 10.3369C17.8416 10.2831 17.7139 10.2552 17.5845 10.2552C17.4552 10.2552 17.3275 10.2831 17.21 10.3369C17.0924 10.3908 16.9878 10.4692 16.9033 10.5672C16.8267 10.673 16.7735 10.794 16.7471 10.9219C16.7207 11.0499 16.7218 11.182 16.7501 11.3095C16.7784 11.4371 16.8335 11.5572 16.9116 11.6619C16.9897 11.7666 17.0891 11.8536 17.2033 11.9172L22.3283 15.8046C22.696 16.0813 23.116 16.2804 23.5629 16.39C24.0098 16.4996 24.4743 16.5173 24.9283 16.4421C25.6008 16.8321 26.1883 16.8321 26.6908 16.4421C27.4433 15.8559 27.1958 15.8034 27.7533 15.0296C28.3843 14.2067 28.9248 13.3182 29.3658 12.3796Z" fill="#DCF0CB"/>
<path d="M28.7656 11.5308C28.7428 10.5486 28.5916 9.57367 28.3156 8.63079C27.559 8.02263 26.9839 7.21842 26.6531 6.30579C26.4531 5.64329 26.3156 5.40579 25.7281 5.39329C25.6085 5.40416 25.4924 5.43886 25.3864 5.49531C25.2805 5.55178 25.1869 5.62887 25.1111 5.72206C25.0354 5.81525 24.9791 5.92264 24.9455 6.03791C24.912 6.15319 24.9018 6.27403 24.9156 6.39329C24.9231 6.69329 24.9481 6.99454 24.9906 7.29329C25.1619 8.11207 25.4031 8.91575 25.7156 9.69327L20.0906 5.41829C19.9968 5.3269 19.8849 5.25617 19.762 5.21069C19.6392 5.1652 19.5082 5.14596 19.3774 5.1542C19.2467 5.16245 19.1192 5.19799 19.003 5.25855C18.8869 5.3191 18.7847 5.40333 18.7031 5.50579C18.6411 5.60948 18.6005 5.7246 18.584 5.84428C18.5674 5.96397 18.5751 6.08577 18.6066 6.20242C18.6381 6.31906 18.6928 6.42818 18.7673 6.52326C18.8419 6.61833 18.9349 6.69741 19.0406 6.75579L21.8531 8.88079L22.5906 9.58079L18.1281 6.19329C18.0387 6.10308 17.9309 6.03312 17.8121 5.98815C17.6933 5.94318 17.5661 5.92425 17.4394 5.93263C17.3126 5.94101 17.1891 5.9765 17.0773 6.03672C16.9654 6.09694 16.8677 6.18046 16.7909 6.28166C16.7141 6.38286 16.66 6.49938 16.6321 6.62332C16.6042 6.74726 16.6033 6.87574 16.6293 7.0001C16.6553 7.12444 16.7077 7.24175 16.783 7.34409C16.8583 7.44642 16.9547 7.53141 17.0656 7.59329L19.8781 9.71831L21.5656 10.9683L17.9156 8.23079C17.8218 8.13943 17.7098 8.06863 17.587 8.02319C17.4642 7.9777 17.3332 7.95846 17.2025 7.9667C17.0717 7.97494 16.9442 8.01047 16.8281 8.07103C16.7119 8.13159 16.6097 8.21583 16.5281 8.31831C16.1406 8.81831 16.4531 9.33079 16.8531 9.64327L19.6656 11.7558L21.0781 12.8183L18.2656 10.6933C18.1789 10.599 18.0736 10.5237 17.9564 10.4722C17.8392 10.4206 17.7124 10.394 17.5844 10.394C17.4563 10.394 17.3296 10.4206 17.2123 10.4722C17.095 10.5237 16.9897 10.599 16.9031 10.6933C16.8264 10.8002 16.773 10.9221 16.7465 11.051C16.72 11.1799 16.7209 11.313 16.7493 11.4414C16.7775 11.57 16.8325 11.6911 16.9108 11.797C16.9889 11.9028 17.0886 11.991 17.2031 12.0558L22.3281 15.8058C23.0706 16.3646 24.8106 16.7333 25.7281 16.5808" stroke="#165209" stroke-width="0.4" stroke-linecap="round" stroke-linejoin="round"/>
<path fill-rule="evenodd" clip-rule="evenodd" d="M32.0579 14.2351C31.8051 13.9645 31.6095 13.6456 31.483 13.2976C31.483 13.0226 31.4079 12.7601 31.3579 12.4851C31.3189 12.0054 31.1645 11.5423 30.9079 11.1351C30.1835 10.2718 29.6661 9.25418 29.3955 8.1601C29.1955 7.49758 29.0579 7.26009 28.4704 7.24758C28.3509 7.25846 28.2347 7.29315 28.1287 7.34961C28.0227 7.40607 27.9291 7.48317 27.8535 7.57635C27.7777 7.66954 27.7215 7.77694 27.6879 7.89221C27.6543 8.00746 27.6441 8.12834 27.6579 8.24762C27.6667 8.54762 27.6917 8.84762 27.733 9.14762C27.9579 10.2976 28.1955 11.2476 28.2204 11.3101L22.8579 7.29758C22.7651 7.20436 22.6534 7.13202 22.5303 7.0854C22.4073 7.03878 22.2757 7.01894 22.1444 7.02722C22.0131 7.0355 21.885 7.07171 21.7688 7.13342C21.6526 7.19514 21.5509 7.28093 21.4704 7.38509C21.4079 7.48802 21.3667 7.60246 21.3492 7.72162C21.3317 7.84078 21.3383 7.96225 21.3686 8.07882C21.3989 8.19538 21.4523 8.30466 21.5256 8.40026C21.599 8.49578 21.6907 8.57562 21.7955 8.63506L24.6079 10.7601L25.4579 11.4601L20.9579 8.07258C20.8659 7.97865 20.755 7.90542 20.6324 7.85776C20.5099 7.8101 20.3785 7.78913 20.2472 7.79622C20.1159 7.80332 19.9876 7.83833 19.871 7.89892C19.7543 7.9595 19.6518 8.04426 19.5704 8.14762C19.4972 8.2537 19.4474 8.3741 19.4241 8.5009C19.4008 8.62762 19.4047 8.75794 19.4354 8.88306C19.466 9.00826 19.5229 9.12554 19.6023 9.22714C19.6815 9.32874 19.7815 9.41242 19.8955 9.47258L22.7079 11.5976L24.3955 12.8476L20.733 10.1101C20.6394 10.0197 20.5278 9.95002 20.4055 9.9057C20.2831 9.8613 20.1528 9.8433 20.0231 9.85274C19.8933 9.86218 19.767 9.8989 19.6524 9.96042C19.5378 10.022 19.4375 10.1071 19.3579 10.2101C18.9704 10.7101 19.2704 11.2226 19.683 11.5351L22.4955 13.6351L23.8955 14.6976L21.033 12.5726C20.8575 12.4201 20.6303 12.3403 20.398 12.3497C20.1657 12.359 19.9457 12.4566 19.783 12.6226C19.7064 12.725 19.6519 12.8422 19.623 12.9667C19.5941 13.0913 19.5912 13.2205 19.6147 13.3462C19.6383 13.4719 19.6875 13.5913 19.7595 13.697C19.8315 13.8026 19.9246 13.8922 20.033 13.9601L25.033 17.7101C25.4504 18.0226 25.933 18.2363 26.4455 18.3351L27.1704 18.4476C27.5517 18.5039 27.9204 18.6263 28.2579 18.8101C28.4913 18.924 28.7589 18.9463 29.0079 18.8726C29.8871 18.5626 30.6562 18.002 31.2204 17.2601C31.749 16.5295 32.053 15.6607 32.0955 14.7601C32.1271 14.5847 32.1143 14.4042 32.0579 14.2351Z" stroke="#165209" stroke-width="1.2" stroke-linecap="round" stroke-linejoin="round"/>
<path fill-rule="evenodd" clip-rule="evenodd" d="M32.1082 14.1722L31.5457 13.7472C31.4834 12.8263 31.268 11.9222 30.9082 11.0722C30.1814 10.2104 29.6638 9.19216 29.3958 8.0972C29.1958 7.4347 29.0582 7.19719 28.4707 7.1847C28.3511 7.19557 28.2349 7.23026 28.129 7.28672C28.023 7.34319 27.9294 7.42028 27.8537 7.51347C27.778 7.60665 27.7217 7.71404 27.6882 7.82932C27.6546 7.9446 27.6444 8.06544 27.6582 8.18472C27.6669 8.48472 27.692 8.78472 27.7332 9.08472C27.9582 10.2472 28.1958 11.1972 28.2207 11.2472L22.8582 7.2347C22.7644 7.1433 22.6525 7.07258 22.5296 7.02709C22.4068 6.9816 22.2757 6.96236 22.145 6.97061C22.0143 6.97885 21.8868 7.0144 21.7706 7.07495C21.6545 7.13551 21.5523 7.21974 21.4707 7.32219C21.0832 7.8347 21.3958 8.33472 21.7958 8.6472L24.6082 10.7597L25.4582 11.4597L20.9582 8.00968C20.8644 7.9183 20.7525 7.84758 20.6296 7.80209C20.5068 7.7566 20.3758 7.73736 20.245 7.74561C20.1143 7.75385 19.9868 7.7894 19.8706 7.84995C19.7545 7.91051 19.6523 7.99474 19.5707 8.0972C19.1832 8.5972 19.4958 9.10968 19.8958 9.42216L22.7082 11.5347L24.3958 12.7847L20.7332 10.0472C20.6405 9.95608 20.5296 9.88552 20.4078 9.84016C20.2859 9.7948 20.1559 9.7756 20.0262 9.78384C19.8965 9.79208 19.7699 9.8276 19.6548 9.88808C19.5397 9.94856 19.4386 10.0326 19.3582 10.1347C19.283 10.2402 19.2314 10.3606 19.207 10.4878C19.1826 10.615 19.186 10.7459 19.2168 10.8718C19.2477 10.9975 19.3054 11.1152 19.3858 11.2166C19.4663 11.3181 19.5678 11.401 19.6832 11.4597L22.4958 13.5722L23.8958 14.6347L21.0332 12.5222C20.8605 12.3638 20.6321 12.2802 20.3979 12.2895C20.1637 12.2989 19.9428 12.4005 19.7832 12.5722C19.6959 12.6749 19.6325 12.7957 19.5973 12.9258C19.5623 13.056 19.5566 13.1923 19.5804 13.325C19.6043 13.4577 19.6573 13.5834 19.7356 13.6931C19.8139 13.8029 19.9155 13.8939 20.0332 13.9597L25.0332 17.7097C25.7913 18.1618 26.6511 18.4154 27.5332 18.4472C27.8533 18.6428 28.1875 18.8141 28.5332 18.9597C29.5361 18.7706 30.4297 18.2077 31.0332 17.3847C31.6921 16.439 32.0652 15.3239 32.1082 14.1722Z" fill="#DDF6D1"/>
<path fill-rule="evenodd" clip-rule="evenodd" d="M32.0579 14.2351C31.8051 13.9645 31.6095 13.6456 31.483 13.2976C31.483 13.0226 31.4079 12.7601 31.3579 12.4851C31.3189 12.0054 31.1645 11.5423 30.9079 11.1351C30.1835 10.2718 29.6661 9.25418 29.3955 8.1601C29.1955 7.49758 29.0579 7.26009 28.4704 7.24758C28.3509 7.25846 28.2347 7.29315 28.1287 7.34961C28.0227 7.40607 27.9291 7.48317 27.8535 7.57635C27.7777 7.66954 27.7215 7.77694 27.6879 7.89221C27.6543 8.00746 27.6441 8.12834 27.6579 8.24762C27.6667 8.54762 27.6917 8.84762 27.733 9.14762C27.9579 10.2976 28.1955 11.2476 28.2204 11.3101L22.8579 7.29758C22.7651 7.20436 22.6534 7.13202 22.5303 7.0854C22.4073 7.03878 22.2757 7.01894 22.1444 7.02722C22.0131 7.0355 21.885 7.07171 21.7688 7.13342C21.6526 7.19514 21.5509 7.28093 21.4704 7.38509C21.4079 7.48802 21.3667 7.60246 21.3492 7.72162C21.3317 7.84078 21.3383 7.96225 21.3686 8.07882C21.3989 8.19538 21.4523 8.30466 21.5256 8.40026C21.599 8.49578 21.6907 8.57562 21.7955 8.63506L24.6079 10.7601L25.4579 11.4601L20.9579 8.07258C20.8659 7.97865 20.755 7.90542 20.6324 7.85776C20.5099 7.8101 20.3785 7.78913 20.2472 7.79622C20.1159 7.80332 19.9876 7.83833 19.871 7.89892C19.7543 7.9595 19.6518 8.04426 19.5704 8.14762C19.4972 8.2537 19.4474 8.3741 19.4241 8.5009C19.4008 8.62762 19.4047 8.75794 19.4354 8.88306C19.466 9.00826 19.5229 9.12554 19.6023 9.22714C19.6815 9.32874 19.7815 9.41242 19.8955 9.47258L22.7079 11.5976L24.3955 12.8476L20.733 10.1101C20.6394 10.0197 20.5278 9.95002 20.4055 9.9057C20.2831 9.8613 20.1528 9.8433 20.0231 9.85274C19.8933 9.86218 19.767 9.8989 19.6524 9.96042C19.5378 10.022 19.4375 10.1071 19.3579 10.2101C18.9704 10.7101 19.2704 11.2226 19.683 11.5351L22.4955 13.6351L23.8955 14.6976L21.033 12.5726C20.8575 12.4201 20.6303 12.3403 20.398 12.3497C20.1657 12.359 19.9457 12.4566 19.783 12.6226C19.7064 12.725 19.6519 12.8422 19.623 12.9667C19.5941 13.0913 19.5912 13.2205 19.6147 13.3462C19.6383 13.4719 19.6875 13.5913 19.7595 13.697C19.8315 13.8026 19.9246 13.8922 20.033 13.9601L25.033 17.7101C25.4504 18.0226 25.933 18.2363 26.4455 18.3351L27.1704 18.4476C27.5517 18.5039 27.9204 18.6263 28.2579 18.8101C28.4913 18.924 28.7589 18.9463 29.0079 18.8726C29.8871 18.5626 30.6562 18.002 31.2204 17.2601C31.749 16.5295 32.053 15.6607 32.0955 14.7601C32.1271 14.5847 32.1143 14.4042 32.0579 14.2351Z" stroke="#165209" stroke-width="0.4" stroke-linecap="round" stroke-linejoin="round"/>
<path d="M23.022 2.04125L22.2107 3.99125M24.6358 3.5225L23.7233 4.6725M20.467 2.03125L20.5482 3.5225" stroke="#165209" stroke-width="0.8" stroke-linecap="round" stroke-linejoin="round"/>
</g>
<path d="M35.9501 18.7503C38.2708 18.7503 40.4964 17.8284 42.1374 16.1874C43.7784 14.5465 44.7003 12.3209 44.7003 10.0002C44.7003 7.67947 43.7784 5.45384 42.1374 3.81286C40.4964 2.17189 38.2708 1.25 35.9501 1.25C33.6294 1.25 31.4038 2.17189 29.7628 3.81286C28.1219 5.45384 27.2 7.67947 27.2 10.0002C27.2 12.3209 28.1219 14.5465 29.7628 16.1874C31.4038 17.8284 33.6294 18.7503 35.9501 18.7503Z" fill="#D8D8D8"/>
<path d="M35.9501 18.7503C38.2708 18.7503 40.4964 17.8284 42.1374 16.1874C43.7784 14.5465 44.7003 12.3209 44.7003 10.0002C44.7003 7.67947 43.7784 5.45384 42.1374 3.81286C40.4964 2.17189 38.2708 1.25 35.9501 1.25C33.6294 1.25 31.4038 2.17189 29.7628 3.81286C28.1219 5.45384 27.2 7.67947 27.2 10.0002C27.2 12.3209 28.1219 14.5465 29.7628 16.1874C31.4038 17.8284 33.6294 18.7503 35.9501 18.7503Z" fill="#BBA9D1"/>
<path d="M34.1312 13.2713H33.965C33.9347 13.2756 33.9039 13.2756 33.8737 13.2713C33.5912 13.1664 32.1524 12.6176 31.1874 12.3476C31.1283 12.3308 31.0753 12.297 31.0353 12.2503C30.9953 12.2036 30.9699 12.1461 30.9624 12.0851C30.9239 11.8664 30.9719 11.6415 31.0962 11.4576C31.1439 11.3923 31.2067 11.3394 31.2791 11.3033C31.3515 11.2672 31.4315 11.249 31.5124 11.25C31.5949 11.25 31.6787 11.2626 31.7574 11.2913C31.9487 11.3663 32.1275 11.4713 32.2849 11.6038L32.3562 11.6538L32.8012 11.9664C32.9675 12.0813 33.1137 12.1813 33.2162 12.2601L34.2562 12.6764C34.3975 12.7388 34.9837 13.0051 34.9512 13.1513C34.9175 13.2964 34.2887 13.2839 34.1487 13.2876L34.1312 13.2713Z" fill="#FEF2FF"/>
<path d="M45.2915 17.5872C43.8005 17.5589 42.3136 17.4215 40.8427 17.176H40.7589C39.6469 17.0324 38.5452 16.8186 37.4601 16.5359C36.5001 16.2659 35.5526 15.9134 34.6351 15.5759L34.2276 15.4284C33.4838 15.1583 32.7438 14.8783 32.0075 14.5884L31.7663 14.4934C31.3804 14.3519 31.0037 14.1861 30.6388 13.9971C30.135 13.7221 29.9813 13.3697 30.2013 12.9521V12.9184C30.271 12.7893 30.3772 12.6837 30.5065 12.6145C30.6359 12.5454 30.7827 12.5159 30.9288 12.5296H30.985C31.0588 12.5246 31.1313 12.5246 31.205 12.5296C32.0038 12.6109 34.3151 13.4321 34.7713 13.5959L36.2626 13.6459H36.2976L39.6714 13.7509C39.4089 13.5297 38.7464 13.1359 37.1313 12.7471C36.8239 12.6721 36.5439 12.5909 36.4776 12.3821C36.4287 12.2216 36.4306 12.0498 36.4832 11.8905C36.5358 11.7311 36.6364 11.592 36.7713 11.4921C36.9839 11.3746 37.2314 11.3209 37.4776 11.3396C37.9256 11.3397 38.3705 11.4145 38.7939 11.5609C39.1452 11.6733 39.5089 11.7484 39.8776 11.7858C40.4802 11.8684 41.0764 11.9921 41.6589 12.1609C43.5402 12.6321 43.904 13.5133 44.1415 14.0471C44.0665 13.8297 44.1415 13.9897 44.1765 13.9071L44.229 13.8371H44.3565C44.4106 13.8413 44.4649 13.8413 44.519 13.8371C44.844 13.8371 45.4565 13.8084 45.4665 13.8084C45.6203 13.8084 46.344 13.6409 46.344 13.7759C46.4102 15.06 46.1204 16.3374 45.5065 17.4672C45.4876 17.4994 45.4615 17.5269 45.4303 17.5474C45.3991 17.5681 45.3636 17.5812 45.3265 17.586H45.2915V17.5872Z" fill="#EAE2F3"/>
<path d="M42.4553 12.4883C42.473 12.4985 42.493 12.5039 42.5134 12.5039C42.5339 12.5039 42.5539 12.4985 42.5716 12.4883H42.4553Z" fill="#D67676"/>
<path fill-rule="evenodd" clip-rule="evenodd" d="M33.6272 4.46673C33.2942 4.12483 32.839 3.9292 32.3617 3.92287C31.8844 3.91654 31.4242 4.10003 31.0822 4.43299L31.0535 4.46673C30.7118 4.81695 30.5205 5.28685 30.5205 5.77613C30.5205 6.26542 30.7118 6.73532 31.0535 7.08553L33.8247 9.89684L36.6023 7.08178C36.9438 6.73221 37.1349 6.26293 37.1349 5.77426C37.1349 5.2856 36.9438 4.81632 36.6023 4.46673C36.4359 4.29422 36.2367 4.15691 36.0162 4.06297C35.7957 3.96904 35.5586 3.92039 35.319 3.91993C35.0793 3.91945 34.842 3.96718 34.6212 4.06026C34.4003 4.15334 34.2005 4.28987 34.0335 4.46173L33.8298 4.67049L33.626 4.46673H33.6272Z" fill="#ECAA96"/>
<path d="M47.104 14.0606C47.249 14.1606 47.2552 15.1893 46.9415 16.0944C46.629 16.9994 45.5915 18.0607 45.424 18.2045C45.2577 18.3482 39.3576 17.5519 37.9739 17.3344C36.5901 17.1169 30.1237 14.0993 29.865 13.9618C29.6049 13.8244 29.5812 12.8393 30.3237 12.6356C31.065 12.4305 33.8863 13.6431 35.0788 13.7393C36.2713 13.8369 38.2501 13.9618 39.6614 13.9618C41.0727 13.9618 38.0314 13.1081 37.5413 12.9369C37.0501 12.7618 36.2476 12.5443 36.1876 12.1343C36.1288 11.7243 36.7338 11.3056 37.1364 11.1993C37.5388 11.093 38.1064 11.3068 39.6614 11.6431C41.2164 11.9793 41.4714 11.7868 42.7215 12.2693C43.9715 12.7518 44.5615 13.4793 44.7002 13.7393C44.8377 14.0006 46.959 13.9618 47.104 14.0606Z" stroke="#493D57" stroke-width="0.8"/>
<path d="M31.0412 12.6155C30.7574 11.8479 31.1812 11.3604 31.6861 11.2604C32.1899 11.1617 33.1587 11.7817 33.8325 12.4067C34.3749 12.9079 34.8162 13.1843 36.2062 13.8067" stroke="#493D57" stroke-width="0.8"/>
<path d="M33.7313 4.21297C33.3594 3.853 32.861 3.65341 32.3435 3.65715C31.8259 3.6609 31.3305 3.86766 30.9638 4.23297C30.5969 4.59859 30.3881 5.09346 30.382 5.61137C30.3759 6.12927 30.5731 6.62891 30.9313 7.00303L33.9501 10.0006L36.9701 6.99928C37.2435 6.72239 37.4289 6.37094 37.5033 5.98904C37.5776 5.60713 37.5375 5.21178 37.3879 4.8526C37.2384 4.49341 36.9861 4.1864 36.6627 3.97009C36.3393 3.75378 35.9592 3.6378 35.5701 3.63672C35.0476 3.63921 34.5476 3.84922 34.1801 4.22173L33.9501 4.43798L33.7313 4.21297Z" stroke="#77280C" stroke-width="0.8" stroke-linecap="round" stroke-linejoin="round"/>
<path d="M50.7998 18.75C55.6323 18.75 59.5498 14.8325 59.5498 10C59.5498 5.16751 55.6323 1.25 50.7998 1.25C45.9673 1.25 42.0498 5.16751 42.0498 10C42.0498 14.8325 45.9673 18.75 50.7998 18.75Z" fill="#DF704D"/>
<path fill-rule="evenodd" clip-rule="evenodd" d="M50.4373 6.24967C50.1331 5.94466 49.7716 5.70268 49.3738 5.53757C48.9759 5.37246 48.5493 5.28746 48.1185 5.28746C47.6877 5.28746 47.2612 5.37246 46.8633 5.53757C46.4654 5.70268 46.104 5.94466 45.7998 6.24967C45.4917 6.55732 45.2474 6.92267 45.0807 7.32483C44.914 7.72699 44.8281 8.15807 44.8281 8.59343C44.8281 9.02879 44.914 9.45983 45.0807 9.86199C45.2474 10.2642 45.4917 10.6295 45.7998 10.9372L50.7998 15.9372L55.7998 10.9372C56.1078 10.6295 56.3522 10.2642 56.5189 9.86199C56.6856 9.45983 56.7715 9.02879 56.7715 8.59343C56.7715 8.15807 56.6856 7.72699 56.5189 7.32483C56.3522 6.92267 56.1078 6.55732 55.7998 6.24967C55.4976 5.94368 55.1374 5.70098 54.7404 5.53572C54.3433 5.37046 53.9173 5.28597 53.4873 5.28717C53.057 5.28456 52.6306 5.36842 52.2334 5.53375C51.8361 5.69909 51.4761 5.94254 51.1748 6.24967L50.7998 6.62467L50.4373 6.24967Z" fill="#FFF3F0" stroke="#77280C" stroke-width="0.8"/>
<path fill-rule="evenodd" clip-rule="evenodd" d="M50.4376 6.25039C50.1351 5.94237 49.7743 5.6977 49.3762 5.53069C48.978 5.36367 48.5507 5.27765 48.1189 5.27765C47.6871 5.27765 47.2598 5.36367 46.8616 5.53069C46.4635 5.6977 46.1027 5.94237 45.8002 6.25039C45.197 6.86902 44.8594 7.69886 44.8594 8.56287C44.8594 9.42695 45.197 10.2568 45.8002 10.8754L50.8002 15.8754L55.8002 10.8754C56.4034 10.2568 56.741 9.42695 56.741 8.56287C56.741 7.69886 56.4034 6.86902 55.8002 6.25039C55.4986 5.94271 55.1388 5.69806 54.7418 5.53068C54.3448 5.3633 53.9185 5.27652 53.4876 5.27539C53.0566 5.27512 52.6299 5.36126 52.2327 5.52872C51.8355 5.69619 51.4759 5.94158 51.1751 6.25039L50.8002 6.5629L50.4376 6.25039Z" stroke="#77280C" stroke-width="0.8" stroke-linecap="round" stroke-linejoin="round"/>
</svg>
