<svg width="48" height="48" viewBox="0 0 48 48" fill="none" xmlns="http://www.w3.org/2000/svg">
<rect x="0.5" y="0.5" width="47" height="47" rx="11.5" fill="#FEF7C3"/>
<rect x="0.5" y="0.5" width="47" height="47" rx="11.5" stroke="url(#paint0_linear_172_753)"/>
<g filter="url(#filter0_dd_172_753)">
<mask id="path-2-outside-1_172_753" maskUnits="userSpaceOnUse" x="11" y="9.52563" width="26" height="29" fill="black">
<rect fill="white" x="11" y="9.52563" width="26" height="29"/>
<path fill-rule="evenodd" clip-rule="evenodd" d="M33.3175 15.0563C33.0031 13.4758 32.2928 12.0057 31.2588 10.781C30.9737 10.4434 30.4642 10.4455 30.1518 10.7579L24.5657 16.344C24.2533 16.6564 23.7467 16.6564 23.4343 16.344L17.8481 10.7579C17.5357 10.4455 17.0263 10.4435 16.7412 10.7811C15.7072 12.0057 14.9969 13.4759 14.6825 15.0564C14.507 15.9389 14.4587 16.8369 14.5349 17.7238C14.5532 17.9357 14.4942 18.1475 14.3674 18.3183C13.4622 19.5367 12.7911 20.923 12.3986 22.4072C11.7596 24.8242 11.8914 27.3804 12.7756 29.7188C13.6598 32.0572 15.2523 34.0611 17.3306 35.4505C19.4089 36.84 21.8693 37.5456 24.3682 37.4689C26.867 37.3922 29.2794 36.537 31.2686 35.0227C33.2578 33.5084 34.7244 31.4106 35.4635 29.0224C36.2027 26.6342 36.1775 24.0747 35.3914 21.7015C34.9868 20.4799 34.391 19.339 33.6326 18.3183C33.5058 18.1475 33.4468 17.9357 33.4651 17.7238C33.5413 16.8369 33.493 15.9389 33.3175 15.0563Z"/>
</mask>
<path fill-rule="evenodd" clip-rule="evenodd" d="M33.3175 15.0563C33.0031 13.4758 32.2928 12.0057 31.2588 10.781C30.9737 10.4434 30.4642 10.4455 30.1518 10.7579L24.5657 16.344C24.2533 16.6564 23.7467 16.6564 23.4343 16.344L17.8481 10.7579C17.5357 10.4455 17.0263 10.4435 16.7412 10.7811C15.7072 12.0057 14.9969 13.4759 14.6825 15.0564C14.507 15.9389 14.4587 16.8369 14.5349 17.7238C14.5532 17.9357 14.4942 18.1475 14.3674 18.3183C13.4622 19.5367 12.7911 20.923 12.3986 22.4072C11.7596 24.8242 11.8914 27.3804 12.7756 29.7188C13.6598 32.0572 15.2523 34.0611 17.3306 35.4505C19.4089 36.84 21.8693 37.5456 24.3682 37.4689C26.867 37.3922 29.2794 36.537 31.2686 35.0227C33.2578 33.5084 34.7244 31.4106 35.4635 29.0224C36.2027 26.6342 36.1775 24.0747 35.3914 21.7015C34.9868 20.4799 34.391 19.339 33.6326 18.3183C33.5058 18.1475 33.4468 17.9357 33.4651 17.7238C33.5413 16.8369 33.493 15.9389 33.3175 15.0563Z" fill="#FAC515"/>
<path d="M33.3175 15.0563L33.8079 14.9588V14.9588L33.3175 15.0563ZM14.6825 15.0564L15.1729 15.1539L14.6825 15.0564ZM12.3986 22.4072L11.9152 22.2794H11.9152L12.3986 22.4072ZM12.7756 29.7188L12.3079 29.8956L12.3079 29.8956L12.7756 29.7188ZM17.3306 35.4505L17.6085 35.0348H17.6085L17.3306 35.4505ZM35.4635 29.0224L34.9859 28.8746L35.4635 29.0224ZM35.3914 21.7015L34.9168 21.8587V21.8587L35.3914 21.7015ZM33.6326 18.3183L33.2313 18.6165L33.6326 18.3183ZM33.4651 17.7238L32.9669 17.6809L33.4651 17.7238ZM31.2588 10.781L30.8767 11.1036L31.2588 10.781ZM30.1518 10.7579L30.5054 11.1114L30.1518 10.7579ZM30.8767 11.1036C31.8563 12.2638 32.5292 13.6566 32.8271 15.1539L33.8079 14.9588C33.4769 13.2951 32.7292 11.7476 31.6408 10.4585L30.8767 11.1036ZM24.9192 16.6976L30.5054 11.1114L29.7983 10.4043L24.2121 15.9905L24.9192 16.6976ZM17.4946 11.1115L23.0808 16.6976L23.7879 15.9905L18.2017 10.4043L17.4946 11.1115ZM15.1729 15.1539C15.4708 13.6566 16.1437 12.2638 17.1233 11.1036L16.3592 10.4585C15.2707 11.7476 14.5231 13.2951 14.1921 14.9588L15.1729 15.1539ZM15.0331 17.6809C14.9608 16.8407 15.0066 15.99 15.1729 15.1539L14.1921 14.9588C14.0074 15.8878 13.9565 16.8331 14.0368 17.7666L15.0331 17.6809ZM12.882 22.5351C13.2581 21.1126 13.9012 19.7841 14.7687 18.6165L13.966 18.0201C13.0231 19.2893 12.324 20.7333 11.9152 22.2794L12.882 22.5351ZM13.2433 29.5419C12.3959 27.301 12.2696 24.8513 12.882 22.5351L11.9152 22.2794C11.2496 24.7971 11.3869 27.4598 12.3079 29.8956L13.2433 29.5419ZM17.6085 35.0348C15.6168 33.7033 14.0907 31.7829 13.2433 29.5419L12.3079 29.8956C13.229 32.3315 14.8878 34.4188 17.0527 35.8662L17.6085 35.0348ZM24.3528 36.9691C21.9581 37.0426 19.6002 36.3664 17.6085 35.0348L17.0527 35.8662C19.2177 37.3135 21.7806 38.0486 24.3835 37.9687L24.3528 36.9691ZM30.9658 34.6249C29.0595 36.0761 26.7475 36.8956 24.3528 36.9691L24.3835 37.9687C26.9864 37.8888 29.4994 36.9979 31.5715 35.4205L30.9658 34.6249ZM34.9859 28.8746C34.2776 31.1633 32.8721 33.1737 30.9658 34.6249L31.5715 35.4205C33.6436 33.8431 35.1713 31.658 35.9412 29.1702L34.9859 28.8746ZM34.9168 21.8587C35.6701 24.1331 35.6942 26.5859 34.9859 28.8746L35.9412 29.1702C36.7111 26.6825 36.6849 24.0164 35.8661 21.5443L34.9168 21.8587ZM33.2313 18.6165C33.958 19.5947 34.529 20.688 34.9168 21.8587L35.8661 21.5443C35.4446 20.2718 34.8239 19.0834 34.034 18.0201L33.2313 18.6165ZM32.8271 15.1539C32.9934 15.99 33.0392 16.8407 32.9669 17.6809L33.9632 17.7666C34.0435 16.8331 33.9926 15.8878 33.8079 14.9588L32.8271 15.1539ZM34.034 18.0201C33.9811 17.9489 33.9553 17.8588 33.9632 17.7666L32.9669 17.6809C32.9384 18.0127 33.0304 18.3461 33.2313 18.6165L34.034 18.0201ZM18.2017 10.4043C17.7028 9.90542 16.8513 9.87568 16.3592 10.4585L17.1233 11.1036C17.2013 11.0113 17.3687 10.9855 17.4946 11.1115L18.2017 10.4043ZM24.2121 15.9905C24.095 16.1076 23.905 16.1076 23.7879 15.9905L23.0808 16.6976C23.5884 17.2053 24.4116 17.2053 24.9192 16.6976L24.2121 15.9905ZM14.0368 17.7666C14.0447 17.8588 14.0189 17.9489 13.966 18.0201L14.7687 18.6165C14.9695 18.3461 15.0616 18.0126 15.0331 17.6809L14.0368 17.7666ZM31.6408 10.4585C31.1487 9.87566 30.2972 9.90539 29.7983 10.4043L30.5054 11.1114C30.6313 10.9855 30.7987 11.0112 30.8767 11.1036L31.6408 10.4585Z" fill="#101828" mask="url(#path-2-outside-1_172_753)"/>
</g>
<path d="M14.75 24.0001C14.75 27.356 17.3289 30.1001 20.5385 30.1001C21.2753 30.1001 21.9578 29.7293 22.5535 29.2885C22.9464 28.9978 23.3295 28.6536 23.6749 28.3432C23.7876 28.2419 23.8963 28.1442 24 28.0532C24.1037 28.1442 24.2124 28.2419 24.3251 28.3432C24.6705 28.6536 25.0536 28.9978 25.4465 29.2885C26.0422 29.7293 26.7247 30.1001 27.4615 30.1001C30.6711 30.1001 33.25 27.356 33.25 24.0001C33.25 20.6443 30.6711 17.9001 27.4615 17.9001C26.7247 17.9001 26.0422 18.271 25.4465 18.7117C25.0536 19.0025 24.6705 19.3467 24.3251 19.6571C24.2124 19.7584 24.1037 19.856 24 19.9471C23.8963 19.856 23.7876 19.7584 23.6749 19.6571C23.3295 19.3467 22.9464 19.0025 22.5535 18.7117C21.9578 18.271 21.2753 17.9001 20.5385 17.9001C17.3289 17.9001 14.75 20.6443 14.75 24.0001Z" stroke="black" stroke-opacity="0.2" stroke-width="0.5"/>
<defs>
<filter id="filter0_dd_172_753" x="5.5" y="8.02563" width="37" height="39.949" filterUnits="userSpaceOnUse" color-interpolation-filters="sRGB">
<feFlood flood-opacity="0" result="BackgroundImageFix"/>
<feColorMatrix in="SourceAlpha" type="matrix" values="0 0 0 0 0 0 0 0 0 0 0 0 0 0 0 0 0 0 127 0" result="hardAlpha"/>
<feMorphology radius="2" operator="erode" in="SourceAlpha" result="effect1_dropShadow_172_753"/>
<feOffset dy="2"/>
<feGaussianBlur stdDeviation="2"/>
<feComposite in2="hardAlpha" operator="out"/>
<feColorMatrix type="matrix" values="0 0 0 0 0.0627451 0 0 0 0 0.0941176 0 0 0 0 0.156863 0 0 0 0.06 0"/>
<feBlend mode="normal" in2="BackgroundImageFix" result="effect1_dropShadow_172_753"/>
<feColorMatrix in="SourceAlpha" type="matrix" values="0 0 0 0 0 0 0 0 0 0 0 0 0 0 0 0 0 0 127 0" result="hardAlpha"/>
<feMorphology radius="2" operator="erode" in="SourceAlpha" result="effect2_dropShadow_172_753"/>
<feOffset dy="4"/>
<feGaussianBlur stdDeviation="4"/>
<feComposite in2="hardAlpha" operator="out"/>
<feColorMatrix type="matrix" values="0 0 0 0 0.0627451 0 0 0 0 0.0941176 0 0 0 0 0.156863 0 0 0 0.1 0"/>
<feBlend mode="normal" in2="effect1_dropShadow_172_753" result="effect2_dropShadow_172_753"/>
<feBlend mode="normal" in="SourceGraphic" in2="effect2_dropShadow_172_753" result="shape"/>
</filter>
<linearGradient id="paint0_linear_172_753" x1="24" y1="0" x2="24" y2="48" gradientUnits="userSpaceOnUse">
<stop stop-color="#FEF7C3" stop-opacity="0"/>
<stop offset="1" stop-color="#FAC515" stop-opacity="0.24"/>
</linearGradient>
</defs>
</svg>
