<svg width="80" height="80" viewBox="0 0 80 80" fill="none" xmlns="http://www.w3.org/2000/svg">
<circle cx="34.3663" cy="34.7964" r="2.73784" fill="#6172F3"/>
<path fill-rule="evenodd" clip-rule="evenodd" d="M36.1844 20.8121C36.1687 20.8174 36.152 20.823 36.1338 20.8301C29.5112 23.3946 24.2608 27.4858 21.5375 33.0248L21.5318 33C21.5318 33 16.558 41.8131 17.0318 47C17.247 49.3552 18.71 48.953 20.2432 47.812C22.7568 57.1373 31.2734 64 41.3929 64C53.4895 64 63.2957 54.1938 63.2957 42.0973C63.2957 33.4046 58.2318 25.8947 50.8931 22.3565C50.6437 22.2363 50.5164 21.9522 50.5998 21.6882L52.0199 17.1912C52.2794 16.3695 51.3604 15.679 50.6434 16.157L44.4716 20.2715C44.3611 20.3452 44.2276 20.3759 44.0958 20.3597L43.9895 20.3469C43.666 20.3087 43.4386 20.0051 43.5025 19.6857L43.7503 18.4463C43.9018 17.689 43.1028 17.0976 42.4228 17.4638L36.2642 20.7799C36.2379 20.7941 36.2126 20.8026 36.1844 20.8121ZM52.7604 53.4914C57.0372 49.2146 55.388 40.6315 49.0769 34.3203C42.7658 28.0092 34.1826 26.36 29.9058 30.6368C25.629 34.9135 27.2782 43.4967 33.5893 49.8079C39.9005 56.119 48.4837 57.7682 52.7604 53.4914Z" fill="#1F235B"/>
</svg>
